<svg width="30" height="30" viewBox="0 0 30 30" fill="none" xmlns="http://www.w3.org/2000/svg">
<path d="M12.0702 16.2615C12.6626 16.2615 13.1428 15.7812 13.1428 15.1888C13.1428 14.5964 12.6626 14.1162 12.0702 14.1162C11.4778 14.1162 10.9975 14.5964 10.9975 15.1888C10.9975 15.7812 11.4778 16.2615 12.0702 16.2615Z" fill="black"/>
<path d="M18.2234 16.2615C18.8158 16.2615 19.296 15.7812 19.296 15.1888C19.296 14.5964 18.8158 14.1162 18.2234 14.1162C17.631 14.1162 17.1507 14.5964 17.1507 15.1888C17.1507 15.7812 17.631 16.2615 18.2234 16.2615Z" fill="black"/>
<path d="M15.1468 16.2615C15.7392 16.2615 16.2194 15.7812 16.2194 15.1888C16.2194 14.5964 15.7392 14.1162 15.1468 14.1162C14.5544 14.1162 14.0741 14.5964 14.0741 15.1888C14.0741 15.7812 14.5544 16.2615 15.1468 16.2615Z" fill="black"/>
<path d="M15.1408 6.74219C10.4642 6.74219 6.67283 10.5334 6.67283 15.2106C6.67283 16.8104 7.11687 18.3069 7.88794 19.5833L6.35944 24.1266L11.0479 22.6257C12.2612 23.2964 13.6562 23.679 15.1408 23.679C19.8181 23.679 23.6094 19.8873 23.6094 15.2106C23.6093 10.5334 19.8181 6.74219 15.1408 6.74219ZM15.1408 22.7128C13.7042 22.7128 12.3606 22.3061 11.2187 21.603L7.82689 22.6886L8.92929 19.4112C8.11567 18.2114 7.63882 16.7662 7.63882 15.2106C7.63882 11.0736 11.0043 7.70789 15.1408 7.70789C19.278 7.70789 22.6434 11.0735 22.6434 15.2106C22.6433 19.3473 19.278 22.7128 15.1408 22.7128Z" fill="black"/>
</svg>
