<svg width="20" height="20" viewBox="0 0 20 20" fill="none" xmlns="http://www.w3.org/2000/svg">
<path d="M18.4976 5.2239L16.5976 1.9977C16.5292 1.8818 16.4045 1.81055 16.27 1.81055H3.73001C3.59549 1.81055 3.47085 1.8818 3.40245 1.9977L1.50245 5.2239C1.46825 5.28223 1.45001 5.34892 1.45001 5.41675V6.98805H1.4597C1.50777 7.60365 1.7865 8.15446 2.21001 8.55536V18.5305C2.21001 18.7403 2.38025 18.9105 2.59001 18.9105H17.41C17.6198 18.9105 17.79 18.7403 17.79 18.5305V8.55536C18.2135 8.15446 18.4923 7.60365 18.5403 6.98805H18.55V5.41675C18.55 5.34892 18.5318 5.28223 18.4976 5.2239ZM16.1275 8.46055C15.2108 8.46055 14.465 7.7148 14.465 6.79805V5.79675H17.79V6.79805C17.79 7.7148 17.0443 8.46055 16.1275 8.46055ZM2.21001 5.79675H5.53501V6.79805C5.53501 7.7148 4.78926 8.46055 3.87251 8.46055C2.95576 8.46055 2.21001 7.7148 2.21001 6.79805V5.79675ZM6.43751 2.57055L5.63875 5.03675H2.49482L3.94737 2.57055H6.43751ZM9.62001 2.57055V5.03675H6.43751L7.23627 2.57055H9.62001ZM12.7638 2.57055L13.5625 5.03675H10.38V2.57055H12.7638ZM16.0527 2.57055L17.5052 5.03675H14.3613L13.5625 2.57055H16.0527ZM12.0425 8.46055C11.1258 8.46055 10.38 7.7148 10.38 6.79805V5.79675H13.705V6.79805C13.705 7.7148 12.9593 8.46055 12.0425 8.46055ZM6.29501 6.79805V5.79675H9.62001V6.79805C9.62001 7.7148 8.87426 8.46055 7.95751 8.46055C7.04076 8.46055 6.29501 7.7148 6.29501 6.79805ZM6.58001 18.1505V11.8805H13.42V18.1505H6.58001ZM17.03 18.1505H14.18V11.1205H5.82001V18.1505H2.97001V9.04442C3.24931 9.15709 3.55331 9.22055 3.87251 9.22055C4.73093 9.22055 5.48447 8.77044 5.91501 8.09518C6.34555 8.77044 7.09909 9.22055 7.95751 9.22055C8.81593 9.22055 9.56947 8.77044 10 8.09518C10.4306 8.77044 11.1841 9.22055 12.0425 9.22055C12.9009 9.22055 13.6545 8.77044 14.085 8.09518C14.5156 8.77044 15.2691 9.22055 16.1275 9.22055C16.4467 9.22055 16.7507 9.15709 17.03 9.04442V18.1505Z" fill="black"/>
</svg>
