<svg width="23" height="23" viewBox="0 0 23 23" fill="none" xmlns="http://www.w3.org/2000/svg">
<path d="M4.93587 9.93799C3.92387 9.93799 3.10349 10.7584 3.10349 11.7704C3.10349 12.7821 3.92387 13.6025 4.93587 13.6025C5.94787 13.6025 6.76824 12.7821 6.76824 11.7704C6.76803 10.7584 5.94764 9.93799 4.93587 9.93799ZM11.5 9.93799C10.488 9.93799 9.66784 10.7584 9.66784 11.7704C9.66784 12.7821 10.4882 13.6025 11.5 13.6025C12.5118 13.6025 13.3322 12.7821 13.3322 11.7704C13.3322 10.7584 12.512 9.93799 11.5 9.93799ZM18.0644 9.93799C17.0528 9.93799 16.2322 10.7584 16.2322 11.7704C16.2322 12.7821 17.0528 13.6025 18.0644 13.6025C19.0764 13.6025 19.8965 12.7821 19.8965 11.7704C19.8965 10.7584 19.0764 9.93799 18.0644 9.93799Z" fill="#0A0A0A"/>
</svg>
