<svg width="30" height="30" viewBox="0 0 30 30" fill="none" xmlns="http://www.w3.org/2000/svg">
<path d="M2.39168 25.9076C2.65964 26.0213 2.96936 25.9636 3.17874 25.7618C6.74458 22.3183 11.4336 20.3509 16.45 20.1778V25.2403C16.45 25.5335 16.6266 25.798 16.8975 25.9102C16.9871 25.9474 17.0813 25.9653 17.1747 25.9653C17.3632 25.9653 17.5488 25.8917 17.6874 25.7531L27.8374 15.6031C28.1208 15.32 28.1208 14.861 27.8374 14.5779L17.6874 4.42791C17.4804 4.22027 17.1681 4.15821 16.8975 4.27073C16.6266 4.38267 16.45 4.64715 16.45 4.94034V10.0325C8.39004 10.4118 1.95001 17.0882 1.95001 25.2403C1.95001 25.5312 2.12401 25.794 2.39168 25.9076ZM17.175 11.4653C17.5755 11.4653 17.9 11.1408 17.9 10.7403V6.69078L26.2996 15.0903L17.9 23.4899V19.4403C17.9 19.0399 17.5755 18.7153 17.175 18.7153C12.1163 18.7153 7.3269 20.4147 3.50499 23.534C4.34802 16.7404 10.157 11.4653 17.175 11.4653Z" fill="#0A0A0A"/>
</svg>
