<svg width="31" height="31" viewBox="0 0 31 31" fill="none" xmlns="http://www.w3.org/2000/svg">
<path d="M23.2274 21.8135L19.5756 18.1618C20.4464 17.0461 20.9338 15.6663 20.9338 14.2236C20.9338 10.6923 18.0601 7.81982 14.53 7.81982C10.9987 7.81982 8.125 10.6923 8.125 14.2236C8.125 17.7543 10.9987 20.628 14.53 20.628C15.8869 20.628 17.2082 20.1912 18.2983 19.3967L21.9714 23.0698L23.2274 21.8135ZM14.53 18.8511C11.9781 18.8511 9.90254 16.7743 9.90254 14.2236C9.90254 11.6723 11.9781 9.59614 14.53 9.59614C17.0807 9.59614 19.1562 11.6723 19.1562 14.2236C19.1562 15.5879 18.5581 16.8762 17.5156 17.7579C16.683 18.4622 15.6225 18.8511 14.53 18.8511Z" fill="#1D1D1D"/>
</svg>
