<svg width="26" height="26" viewBox="0 0 26 26" fill="none" xmlns="http://www.w3.org/2000/svg">
<path d="M18.0312 19.2427C18.5783 19.2427 19.1029 19.46 19.4897 19.8468C19.8765 20.2336 20.0938 20.7582 20.0938 21.3052C20.0938 21.8522 19.8765 22.3768 19.4897 22.7636C19.1029 23.1504 18.5783 23.3677 18.0312 23.3677C16.8866 23.3677 15.9688 22.4396 15.9688 21.3052C15.9688 20.1605 16.8866 19.2427 18.0312 19.2427ZM1.53125 2.74268H4.90344L5.87281 4.80518H21.125C21.3985 4.80518 21.6608 4.91383 21.8542 5.10722C22.0476 5.30062 22.1562 5.56292 22.1562 5.83643C22.1562 6.01174 22.1047 6.18705 22.0325 6.35205L18.3406 13.0242C17.99 13.6533 17.3094 14.0864 16.5359 14.0864H8.85313L7.925 15.7674L7.89406 15.8911C7.89406 15.9595 7.92122 16.0251 7.96957 16.0734C8.01792 16.1218 8.0835 16.1489 8.15188 16.1489H20.0938V18.2114H7.71875C6.57406 18.2114 5.65625 17.2833 5.65625 16.1489C5.65625 15.788 5.74906 15.4477 5.90375 15.1589L7.30625 12.6324L3.59375 4.80518H1.53125V2.74268ZM7.71875 19.2427C8.26576 19.2427 8.79036 19.46 9.17716 19.8468C9.56395 20.2336 9.78125 20.7582 9.78125 21.3052C9.78125 21.8522 9.56395 22.3768 9.17716 22.7636C8.79036 23.1504 8.26576 23.3677 7.71875 23.3677C6.57406 23.3677 5.65625 22.4396 5.65625 21.3052C5.65625 20.1605 6.57406 19.2427 7.71875 19.2427ZM17 12.0239L19.8669 6.86768H6.83187L9.26562 12.0239H17Z" fill="#0A0A0A"/>
</svg>
