<svg width="16" height="16" viewBox="0 0 16 16" fill="none" xmlns="http://www.w3.org/2000/svg">
<path d="M10.8212 1.92725C7.79776 0.705648 4.30093 1.74401 2.4838 4.38572C0.697211 6.99689 1.01788 10.4632 3.21676 12.7231C3.06406 13.3797 2.75866 14.1738 2.14786 14.5708C2.04097 14.6472 1.99516 14.7693 2.01043 14.8915C2.04097 15.0136 2.13259 15.1053 2.27002 15.1358C2.30056 15.1358 2.52961 15.1663 2.89609 15.1663C3.58324 15.1663 4.72849 15.0442 5.72104 14.3418C6.49981 14.6319 7.32439 14.7846 8.17951 14.7846H8.19478C11.4626 14.7846 14.2875 12.5246 14.9289 9.40955C15.5702 6.29447 13.8447 3.14885 10.8212 1.92725ZM5.78212 6.26393H9.23314C9.40111 6.26393 9.53854 6.40136 9.53854 6.56933C9.53854 6.7373 9.40111 6.87473 9.23314 6.87473H5.78212C5.61415 6.87473 5.47672 6.7373 5.47672 6.56933C5.47672 6.40136 5.61415 6.26393 5.78212 6.26393ZM11.3099 9.6386H5.78212C5.61415 9.6386 5.47672 9.50117 5.47672 9.3332C5.47672 9.16523 5.61415 9.0278 5.78212 9.0278H11.3099C11.4778 9.0278 11.6153 9.16523 11.6153 9.3332C11.6153 9.50117 11.4778 9.6386 11.3099 9.6386Z" fill="#FFCE71"/>
</svg>
