<svg width="18" height="19" viewBox="0 0 18 19" fill="none" xmlns="http://www.w3.org/2000/svg">
<path d="M2.4733 12.7992L6.10367 8.69318L2.4733 5.52032C2.06035 5.1596 1.83098 4.80194 1.78938 4.45508V13.8644C1.83098 13.5174 2.06035 13.1599 2.4733 12.7992Z" fill="#8A8A91"/>
<path d="M2.94903 4.84802L7.73576 9.03086C8.08288 9.33398 8.57101 9.50786 9.07484 9.50786C9.57883 9.50786 10.067 9.33398 10.4139 9.03086L15.2007 4.84802C15.3326 4.73264 15.4416 4.58882 15.5011 4.45508H2.64854C2.70828 4.58882 2.81708 4.73264 2.94903 4.84802Z" fill="#8A8A91"/>
<path d="M15.6758 5.52032L12.0454 8.693L15.6759 12.7992C16.0889 13.1599 16.3182 13.5175 16.3598 13.8644V4.45508C16.3184 4.80194 16.0889 5.15942 15.6758 5.52032Z" fill="#8A8A91"/>
<path d="M15.201 13.4714L11.4415 9.2207L10.8896 9.70292C10.4027 10.1286 9.75822 10.3632 9.075 10.3632C8.39178 10.3632 7.74726 10.1288 7.26026 9.7031L6.70851 9.22088L2.94903 13.4714C2.81724 13.587 2.70828 13.7306 2.6487 13.8643H15.5016C15.4417 13.7308 15.3329 13.587 15.201 13.4714Z" fill="#8A8A91"/>
</svg>
