<svg width="29" height="29" viewBox="0 0 29 29" fill="none" xmlns="http://www.w3.org/2000/svg">
<path d="M24.298 16.0881C23.878 16.0881 23.514 16.4521 23.514 16.8721V25.4961H18.81V20.7921C18.81 18.6361 17.046 16.8721 14.89 16.8721C12.734 16.8721 10.97 18.6361 10.97 20.7921V25.4961H6.266V16.8721C6.266 16.4521 5.902 16.0881 5.482 16.0881C5.062 16.0881 4.698 16.4521 4.698 16.8721V26.2801C4.698 26.7001 5.062 27.0641 5.482 27.0641H24.298C24.718 27.0641 25.082 26.7001 25.082 26.2801V16.8721C25.082 16.4521 24.718 16.0881 24.298 16.0881ZM12.538 20.7921C12.538 19.5041 13.602 18.4401 14.89 18.4401C16.178 18.4401 17.242 19.5041 17.242 20.7921V25.4961H12.538V20.7921ZM28.078 10.9361L24.942 6.23207C24.914 6.17607 24.886 6.14807 24.83 6.12007C24.83 6.12007 24.83 6.09207 24.802 6.09207C24.774 6.06407 24.746 6.06407 24.746 6.03607C24.718 6.03607 24.69 6.00807 24.69 6.00807C24.662 6.00807 24.634 5.98007 24.634 5.98007C24.606 5.98007 24.578 5.95207 24.55 5.95207C24.522 5.95207 24.522 5.92407 24.494 5.92407C24.438 5.92407 24.382 5.89607 24.326 5.89607H5.482C5.426 5.89607 5.37 5.89607 5.342 5.92407C5.314 5.92407 5.286 5.95207 5.258 5.95207C5.23 5.95207 5.23 5.95207 5.202 5.98007C5.174 5.98007 5.146 6.00807 5.118 6.00807C5.09 6.00807 5.09 6.03607 5.062 6.03607C5.034 6.06407 5.006 6.06407 5.006 6.09207C4.95 6.09207 4.95 6.12007 4.922 6.12007C4.894 6.14807 4.866 6.20407 4.81 6.23207L1.702 10.9361C1.618 11.0761 1.562 11.2161 1.562 11.3841C1.562 13.5401 3.326 15.3041 5.482 15.3041C6.77 15.3041 7.89 14.6881 8.618 13.7361C9.346 14.6881 10.466 15.3041 11.754 15.3041C13.042 15.3041 14.162 14.6881 14.89 13.7361C15.618 14.6881 16.738 15.3041 18.026 15.3041C19.314 15.3041 20.434 14.6881 21.162 13.7361C21.89 14.6881 23.01 15.3041 24.298 15.3041C26.454 15.3041 28.218 13.5401 28.218 11.3841C28.218 11.2161 28.162 11.0761 28.078 10.9361ZM24.298 13.7361C23.01 13.7361 21.946 12.6721 21.946 11.3841V9.03207C21.946 8.61207 21.582 8.24807 21.162 8.24807C20.742 8.24807 20.378 8.61207 20.378 9.03207V11.3841C20.378 12.6721 19.314 13.7361 18.026 13.7361C16.738 13.7361 15.674 12.6721 15.674 11.3841V9.03207C15.674 8.61207 15.31 8.24807 14.89 8.24807C14.47 8.24807 14.106 8.61207 14.106 9.03207V11.3841C14.106 12.6721 13.042 13.7361 11.754 13.7361C10.466 13.7361 9.402 12.6721 9.402 11.3841V9.03207C9.402 8.61207 9.038 8.24807 8.618 8.24807C8.198 8.24807 7.834 8.61207 7.834 9.03207V11.3841C7.834 12.6721 6.77 13.7361 5.482 13.7361C4.25 13.7361 3.242 12.8121 3.13 11.6081L5.902 7.46407H23.878L26.65 11.6081C26.538 12.8121 25.53 13.7361 24.298 13.7361ZM4.698 4.32807V2.76007C4.698 2.34007 5.062 1.97607 5.482 1.97607H24.298C24.718 1.97607 25.082 2.34007 25.082 2.76007V4.32807C25.082 4.74807 24.718 5.11207 24.298 5.11207C23.878 5.11207 23.514 4.74807 23.514 4.32807V3.54407H6.266V4.32807C6.266 4.74807 5.902 5.11207 5.482 5.11207C5.062 5.11207 4.698 4.74807 4.698 4.32807Z" fill="black"/>
</svg>
