<svg width="76" height="14" viewBox="0 0 76 14" fill="none" xmlns="http://www.w3.org/2000/svg">
<g clip-path="url(#clip0_1_575)">
<path d="M7.15506 0.982422L9.10923 4.94095L13.4773 5.5757L10.3165 8.65684L11.0629 13.0077L7.15506 10.9536L3.24804 13.0077L3.9942 8.65684L0.832809 5.5757L5.20155 4.94095L7.15506 0.982422Z" fill="#FACE14"/>
</g>
<g clip-path="url(#clip1_1_575)">
<path d="M22.4851 0.982422L24.4392 4.94095L28.8073 5.5757L25.6465 8.65684L26.3929 13.0077L22.4851 10.9536L18.578 13.0077L19.3242 8.65684L16.1628 5.5757L20.5316 4.94095L22.4851 0.982422Z" fill="#FACE14"/>
</g>
<g clip-path="url(#clip2_1_575)">
<path d="M37.8151 0.982422L39.7692 4.94095L44.1373 5.5757L40.9765 8.65684L41.7229 13.0077L37.8151 10.9536L33.908 13.0077L34.6542 8.65684L31.4928 5.5757L35.8616 4.94095L37.8151 0.982422Z" fill="#FACE14"/>
</g>
<g clip-path="url(#clip3_1_575)">
<path d="M53.1551 0.982422L55.1092 4.94095L59.4773 5.5757L56.3165 8.65684L57.0629 13.0077L53.1551 10.9536L49.248 13.0077L49.9942 8.65684L46.8328 5.5757L51.2016 4.94095L53.1551 0.982422Z" fill="#FACE14"/>
</g>
<g clip-path="url(#clip4_1_575)">
<path d="M68.4851 0.982422L70.4392 4.94095L74.8073 5.5757L71.6465 8.65684L72.3929 13.0077L68.4851 10.9536L64.578 13.0077L65.3242 8.65684L62.1628 5.5757L66.5316 4.94095L68.4851 0.982422Z" fill="#FACE14"/>
</g>
<defs>
<clipPath id="clip0_1_575">
<rect width="13.31" height="13.31" fill="white" transform="translate(0.5 0.339966)"/>
</clipPath>
<clipPath id="clip1_1_575">
<rect width="13.31" height="13.31" fill="white" transform="translate(15.83 0.339966)"/>
</clipPath>
<clipPath id="clip2_1_575">
<rect width="13.31" height="13.31" fill="white" transform="translate(31.16 0.339966)"/>
</clipPath>
<clipPath id="clip3_1_575">
<rect width="13.31" height="13.31" fill="white" transform="translate(46.5 0.339966)"/>
</clipPath>
<clipPath id="clip4_1_575">
<rect width="13.31" height="13.31" fill="white" transform="translate(61.83 0.339966)"/>
</clipPath>
</defs>
</svg>
