<svg width="20" height="19" viewBox="0 0 20 19" fill="none" xmlns="http://www.w3.org/2000/svg">
<path fill-rule="evenodd" clip-rule="evenodd" d="M6.59568 3.26397L7.78644 6.24053C7.8648 6.43643 7.816 6.64975 7.66019 6.79203L6.24489 8.08636C6.07281 8.24377 6.03226 8.49122 6.14567 8.69515C7.09792 10.4079 8.53224 11.8534 10.2367 12.8199C10.4409 12.9356 10.6908 12.8959 10.8492 12.7227L12.0454 11.4146C12.1879 11.2588 12.401 11.21 12.5971 11.2886L15.5735 12.4789C15.8028 12.5706 15.9289 12.8114 15.8736 13.0522L15.4378 14.95C15.2316 15.8493 14.3917 16.443 13.4754 16.3376C11.9542 16.1628 10.4044 15.6452 8.95223 14.7972C6.98863 13.6511 5.30295 11.9551 4.16947 9.9842C3.31277 8.4942 2.80228 6.90385 2.65152 5.349C2.56376 4.4419 3.15445 3.62232 4.04231 3.4184L6.02263 2.96404C6.26344 2.90882 6.50403 3.03461 6.59568 3.26397ZM10.0965 2.85612C9.85452 2.85612 9.65816 2.65976 9.65816 2.41781C9.65816 2.17585 9.85452 1.97949 10.0965 1.97949C11.0341 1.97949 11.9746 2.16279 12.86 2.52962C13.7112 2.88224 14.5071 3.40305 15.1959 4.09157C15.9096 4.80552 16.4428 5.63289 16.7952 6.5164C17.1602 7.43221 17.33 8.40897 17.3041 9.38206C17.2981 9.62356 17.0974 9.81442 16.8561 9.80823C16.6146 9.80228 16.4238 9.60156 16.4297 9.3603C16.4524 8.50635 16.303 7.64759 15.9813 6.84084C15.6727 6.06639 15.2039 5.33984 14.5759 4.71158C13.9671 4.10279 13.2678 3.64431 12.5234 3.33591C11.751 3.01605 10.925 2.85612 10.0965 2.85612ZM10.0965 6.99893C9.85452 6.99893 9.65816 6.8028 9.65816 6.56085C9.65816 6.31866 9.85452 6.12253 10.0965 6.12253C10.494 6.12253 10.8943 6.20089 11.2726 6.35761C11.6357 6.50792 11.9744 6.72925 12.2663 7.02116C12.5864 7.34102 12.8208 7.71426 12.9699 8.11248C13.1241 8.52376 13.1862 8.96368 13.1564 9.40016C13.1404 9.64097 12.9321 9.82313 12.6913 9.80709C12.4505 9.79105 12.2686 9.58278 12.2846 9.34197C12.3057 9.03265 12.2603 8.71783 12.149 8.4202C12.0427 8.13654 11.8752 7.86984 11.6463 7.64117C11.4343 7.42923 11.1924 7.27022 10.936 7.1639C10.6707 7.05415 10.3847 6.99893 10.0965 6.99893ZM10.0965 5.02617C9.85452 5.02617 9.65816 4.83004 9.65816 4.58785C9.65816 4.3459 9.85452 4.14953 10.0965 4.14953C10.7511 4.14953 11.4087 4.27784 12.0285 4.53469C12.624 4.78146 13.1805 5.14531 13.6612 5.62602C14.1671 6.1317 14.5431 6.72078 14.7896 7.35041C15.0444 8.00181 15.1585 8.69675 15.1317 9.38802C15.1223 9.62883 14.9196 9.81648 14.6787 9.80709C14.4379 9.7977 14.2505 9.59492 14.2597 9.35411C14.2821 8.7845 14.1873 8.21009 13.976 7.67004C13.7737 7.15313 13.4621 6.66693 13.0412 6.24603C12.6405 5.84529 12.1806 5.54353 11.6916 5.34099C11.185 5.13111 10.642 5.02617 10.0965 5.02617Z" fill="black"/>
</svg>
