<svg width="16" height="16" viewBox="0 0 16 16" fill="none" xmlns="http://www.w3.org/2000/svg">
<path d="M9.65207 14.6043C10.375 13.3275 10.8888 11.9432 11.1742 10.5039H14.8137C14.3657 11.5651 13.6583 12.4966 12.7564 13.2131C11.8545 13.9296 10.787 14.408 9.65207 14.6043Z" fill="#8A8A91"/>
<path d="M7.76915 14.017C7.83822 14.1455 7.94079 14.2528 8.06595 14.3276C8.19111 14.4024 8.33419 14.4419 8.48 14.4419C8.62581 14.4419 8.76889 14.4024 8.89405 14.3276C9.01921 14.2528 9.12178 14.1455 9.19085 14.017C9.78434 12.9135 10.216 11.7304 10.4725 10.5039H6.48754C6.74404 11.7304 7.17566 12.9135 7.76915 14.017Z" fill="#8A8A91"/>
<path d="M7.30805 14.6043C6.17307 14.408 5.10562 13.9296 4.20372 13.2131C3.30182 12.4966 2.59439 11.5651 2.1464 10.5039H5.78596C6.0713 11.9432 6.58516 13.3275 7.30805 14.6043Z" fill="#8A8A91"/>
<path d="M11.2924 5.84375C11.4847 7.16108 11.4847 8.49938 11.2924 9.81671H15.0618C15.4527 8.52125 15.4527 7.1392 15.0618 5.84375H11.2924Z" fill="#8A8A91"/>
<path d="M10.5972 9.81671C10.7998 8.50014 10.7998 7.16031 10.5972 5.84375H6.36281C6.16024 7.16031 6.16024 8.50014 6.36281 9.81671H10.5972Z" fill="#8A8A91"/>
<path d="M5.66762 9.81671C5.47529 8.49938 5.47529 7.16108 5.66762 5.84375H1.89825C1.50726 7.1392 1.50726 8.52125 1.89825 9.81671H5.66762Z" fill="#8A8A91"/>
<path d="M9.65207 1.05566C10.375 2.3325 10.8888 3.71682 11.1742 5.15607H14.8137C14.3657 4.09492 13.6583 3.16333 12.7564 2.44687C11.8545 1.73041 10.787 1.25203 9.65207 1.05566Z" fill="#8A8A91"/>
<path d="M7.76915 1.64304C7.17566 2.74657 6.74404 3.92976 6.48754 5.15622H10.4725C10.216 3.92976 9.78434 2.74657 9.19085 1.64304C9.12178 1.51464 9.01921 1.40735 8.89405 1.33256C8.76889 1.25776 8.62581 1.21826 8.48 1.21826C8.3342 1.21826 8.19111 1.25776 8.06595 1.33256C7.94079 1.40735 7.83823 1.51464 7.76915 1.64304Z" fill="#8A8A91"/>
<path d="M2.1464 5.15607H5.78596C6.0713 3.71682 6.58516 2.3325 7.30805 1.05566C6.17307 1.25203 5.10562 1.73041 4.20372 2.44687C3.30182 3.16333 2.59439 4.09492 2.1464 5.15607Z" fill="#8A8A91"/>
</svg>
