<svg width="18" height="21" viewBox="0 0 18 21" fill="none" xmlns="http://www.w3.org/2000/svg">
<path d="M3.78019 13.6495H3.64583C3.24315 13.6495 2.91666 14.0123 2.91666 14.4607C2.91666 14.909 3.24315 15.2719 3.64583 15.2719H3.78024C4.0822 16.2141 4.884 16.8943 5.83333 16.8943C6.78266 16.8943 7.58451 16.2141 7.88647 15.2719H9.61357C9.91553 16.2141 10.7173 16.8943 11.6667 16.8943C12.6202 16.8943 13.4246 16.2079 13.7234 15.2592C14.5934 15.1944 15.3192 14.5173 15.5108 13.5576L16.4184 9.01278C16.5487 8.36161 16.408 7.68904 16.0324 7.16857C15.6568 6.64731 15.0975 6.34866 14.4972 6.34866H13.5441C13.4709 6.0453 13.3394 5.75922 13.1531 5.51132C12.7782 5.01224 12.2278 4.72626 11.6432 4.72626H4.375C3.97232 4.72626 3.64583 5.08908 3.64583 5.53746C3.64583 5.98584 3.97232 6.34866 4.375 6.34866H11.6432C11.8504 6.34866 11.9771 6.4762 12.0345 6.55225C12.0914 6.6283 12.1815 6.78911 12.1452 7.01489L11.3183 12.0662C10.524 12.2091 9.87753 12.8256 9.61352 13.6495H7.88647C7.58451 12.7072 6.78266 12.0271 5.83333 12.0271C4.884 12.0271 4.08216 12.7072 3.78019 13.6495ZM14.8949 8.18336C14.9522 8.26258 15.0408 8.42973 14.9949 8.66105L14.0874 13.2058C14.0449 13.4178 13.9004 13.5719 13.7197 13.6248C13.5428 13.093 13.2001 12.6441 12.7531 12.3564L13.471 7.97106H14.4972C14.7101 7.97106 14.8375 8.10414 14.8949 8.18336ZM11.6667 13.6495C11.7129 13.6495 11.7596 13.6534 11.7909 13.659C12.1413 13.735 12.3958 14.0717 12.3958 14.4607C12.3958 14.9082 12.0686 15.2719 11.6667 15.2719C11.2647 15.2719 10.9375 14.9082 10.9375 14.4607C10.9375 14.0131 11.2647 13.6495 11.6667 13.6495ZM5.83333 13.6495C6.2353 13.6495 6.5625 14.0131 6.5625 14.4607C6.5625 14.9082 6.2353 15.2719 5.83333 15.2719C5.43136 15.2719 5.10416 14.9082 5.10416 14.4607C5.10416 14.0131 5.43136 13.6495 5.83333 13.6495Z" fill="#1CBFC0"/>
<path d="M2.91667 9.59365H5.83333C6.23601 9.59365 6.5625 9.23083 6.5625 8.78245C6.5625 8.33407 6.23601 7.97125 5.83333 7.97125H2.91667C2.51399 7.97125 2.1875 8.33407 2.1875 8.78245C2.1875 9.23083 2.51399 9.59365 2.91667 9.59365Z" fill="#1CBFC0"/>
<path d="M1.45833 12.0274H3.64583C4.04851 12.0274 4.375 11.6645 4.375 11.2162C4.375 10.7678 4.04851 10.405 3.64583 10.405H1.45833C1.05565 10.405 0.729164 10.7678 0.729164 11.2162C0.729164 11.6645 1.05565 12.0274 1.45833 12.0274Z" fill="#1CBFC0"/>
<path d="M2.1875 6.34866C2.59021 6.34866 2.91667 5.98547 2.91667 5.53746C2.91667 5.08944 2.59021 4.72626 2.1875 4.72626C1.78479 4.72626 1.45834 5.08944 1.45834 5.53746C1.45834 5.98547 1.78479 6.34866 2.1875 6.34866Z" fill="#1CBFC0"/>
<path d="M1.45833 15.2724C1.86104 15.2724 2.1875 14.9092 2.1875 14.4612C2.1875 14.0131 1.86104 13.65 1.45833 13.65C1.05562 13.65 0.729164 14.0131 0.729164 14.4612C0.729164 14.9092 1.05562 15.2724 1.45833 15.2724Z" fill="#1CBFC0"/>
</svg>
