<svg width="75" height="15" viewBox="0 0 75 15" fill="none" xmlns="http://www.w3.org/2000/svg">
<path d="M6.65506 1.42249L8.60923 5.38101L12.9773 6.01577L9.81645 9.0969L10.5629 13.4478L6.65506 11.3937L2.74804 13.4478L3.4942 9.0969L0.332809 6.01577L4.70155 5.38101L6.65506 1.42249Z" fill="#FACE14"/>
<g clip-path="url(#clip0_1_618)">
<path d="M21.9851 1.42249L23.9392 5.38101L28.3073 6.01577L25.1465 9.0969L25.8929 13.4478L21.9851 11.3937L18.078 13.4478L18.8242 9.0969L15.6628 6.01577L20.0316 5.38101L21.9851 1.42249Z" fill="#FACE14"/>
</g>
<g clip-path="url(#clip1_1_618)">
<path d="M37.3151 1.42249L39.2692 5.38101L43.6373 6.01577L40.4765 9.0969L41.2229 13.4478L37.3151 11.3937L33.408 13.4478L34.1542 9.0969L30.9928 6.01577L35.3616 5.38101L37.3151 1.42249Z" fill="#FACE14"/>
</g>
<path d="M52.6551 1.42249L54.6092 5.38101L58.9773 6.01577L55.8165 9.0969L56.5629 13.4478L52.6551 11.3937L48.748 13.4478L49.4942 9.0969L46.3328 6.01577L50.7016 5.38101L52.6551 1.42249Z" fill="#FACE14"/>
<g clip-path="url(#clip2_1_618)">
<path d="M67.9851 1.42249L69.9392 5.38101L74.3073 6.01577L71.1465 9.0969L71.8929 13.4478L67.9851 11.3937L64.078 13.4478L64.8242 9.0969L61.6628 6.01577L66.0316 5.38101L67.9851 1.42249Z" fill="#FACE14"/>
</g>
<defs>
<clipPath id="clip0_1_618">
<rect width="13.31" height="13.31" fill="white" transform="translate(15.33 0.780029)"/>
</clipPath>
<clipPath id="clip1_1_618">
<rect width="13.31" height="13.31" fill="white" transform="translate(30.66 0.780029)"/>
</clipPath>
<clipPath id="clip2_1_618">
<rect width="13.31" height="13.31" fill="white" transform="translate(61.33 0.780029)"/>
</clipPath>
</defs>
</svg>
