<svg width="76" height="15" viewBox="0 0 76 15" fill="none" xmlns="http://www.w3.org/2000/svg">
<g clip-path="url(#clip0_1_704)">
<path d="M7.15506 1.42261L9.10923 5.38113L13.4773 6.01589L10.3165 9.09702L11.0629 13.4479L7.15506 11.3938L3.24804 13.4479L3.9942 9.09702L0.832809 6.01589L5.20155 5.38113L7.15506 1.42261Z" fill="#FACE14"/>
</g>
<path d="M22.4851 1.42261L24.4392 5.38113L28.8073 6.01589L25.6465 9.09702L26.3929 13.4479L22.4851 11.3938L18.578 13.4479L19.3242 9.09702L16.1628 6.01589L20.5316 5.38113L22.4851 1.42261Z" fill="#FACE14"/>
<g clip-path="url(#clip1_1_704)">
<path d="M37.8151 1.42261L39.7692 5.38113L44.1373 6.01589L40.9765 9.09702L41.7229 13.4479L37.8151 11.3938L33.908 13.4479L34.6542 9.09702L31.4928 6.01589L35.8616 5.38113L37.8151 1.42261Z" fill="#FACE14"/>
</g>
<g clip-path="url(#clip2_1_704)">
<path d="M53.1551 1.42261L55.1092 5.38113L59.4773 6.01589L56.3165 9.09702L57.0629 13.4479L53.1551 11.3938L49.248 13.4479L49.9942 9.09702L46.8328 6.01589L51.2016 5.38113L53.1551 1.42261Z" fill="#FACE14"/>
</g>
<path d="M68.4851 1.42261L70.4392 5.38113L74.8073 6.01589L71.6465 9.09702L72.3929 13.4479L68.4851 11.3938L64.578 13.4479L65.3242 9.09702L62.1628 6.01589L66.5316 5.38113L68.4851 1.42261Z" fill="#FACE14"/>
<defs>
<clipPath id="clip0_1_704">
<rect width="13.31" height="13.31" fill="white" transform="translate(0.5 0.780029)"/>
</clipPath>
<clipPath id="clip1_1_704">
<rect width="13.31" height="13.31" fill="white" transform="translate(31.16 0.780029)"/>
</clipPath>
<clipPath id="clip2_1_704">
<rect width="13.31" height="13.31" fill="white" transform="translate(46.5 0.780029)"/>
</clipPath>
</defs>
</svg>
