<svg width="21" height="22" viewBox="0 0 21 22" fill="none" xmlns="http://www.w3.org/2000/svg">
<path d="M16.236 11.9161C14.8283 11.9161 13.6803 13.0607 13.6803 14.4684C13.6803 15.8795 14.8283 17.0241 16.236 17.0241C17.6437 17.0241 18.7917 15.8829 18.7917 14.4718C18.7917 13.0641 17.6437 11.9161 16.236 11.9161ZM17.2063 14.2087L16.195 15.2166C16.1267 15.285 16.0413 15.3157 15.9524 15.3157C15.8636 15.3157 15.7782 15.2816 15.7098 15.2166L15.2657 14.7725C15.1324 14.6392 15.1324 14.424 15.2657 14.2907C15.3989 14.1575 15.6142 14.1575 15.7474 14.2907L15.9524 14.4957L16.7212 13.727C16.8544 13.5937 17.0697 13.5937 17.2029 13.727C17.3362 13.8602 17.3396 14.0755 17.2063 14.2087Z" fill="#FFCE71"/>
<path d="M16.7758 6.10095V6.3777H1.70834V6.10095C1.70834 5.45862 2.22767 4.93587 2.87 4.93587H15.6142C16.2531 4.93245 16.7758 5.45862 16.7758 6.10095Z" fill="#FFCE71"/>
<path d="M1.70834 9.3844V13.9422C1.70834 14.5846 2.22767 15.1073 2.87 15.1073H13.0619C13.0209 14.9023 12.997 14.6905 12.997 14.4718C12.997 12.6883 14.4491 11.2362 16.236 11.2362C16.4205 11.2362 16.5982 11.2567 16.7758 11.2841V9.3844H1.70834ZM6.04067 12.4594H3.5465C3.35859 12.4594 3.20484 12.3056 3.20484 12.1177C3.20484 11.9298 3.35859 11.7761 3.5465 11.7761H6.04067C6.22859 11.7761 6.38234 11.9298 6.38234 12.1177C6.38234 12.3056 6.22859 12.4594 6.04067 12.4594ZM7.82417 12.4594H7.21942C7.0315 12.4594 6.87775 12.3056 6.87775 12.1177C6.87775 11.9298 7.0315 11.7761 7.21942 11.7761H7.82417C8.01209 11.7761 8.16584 11.9298 8.16584 12.1177C8.16584 12.3056 8.01209 12.4594 7.82417 12.4594ZM9.6555 12.4594H9.05075C8.86284 12.4594 8.70909 12.3056 8.70909 12.1177C8.70909 11.9298 8.86284 11.7761 9.05075 11.7761H9.6555C9.84342 11.7761 9.99717 11.9298 9.99717 12.1177C9.99717 12.3056 9.84342 12.4594 9.6555 12.4594Z" fill="#FFCE71"/>
<path d="M16.7758 7.06104H1.70834V8.70103H16.7758V7.06104Z" fill="#FFCE71"/>
</svg>
