<svg width="23" height="24" viewBox="0 0 23 24" fill="none" xmlns="http://www.w3.org/2000/svg">
<path d="M14.9204 18.0169H13.8547C13.4421 18.0169 12.9264 17.3293 12.6858 15.851C13.1327 15.7823 13.4765 15.3697 13.4765 14.9228V14.5103C12.892 14.7165 12.2732 14.8197 11.6544 14.854C11.5513 14.854 11.4481 14.854 11.345 14.854C10.623 14.854 9.90109 14.7509 9.24789 14.5103V14.9228C9.24789 15.4041 9.59168 15.7823 10.0386 15.851C9.79795 17.3293 9.28227 18.0169 8.86973 18.0169H7.80398C6.84138 18.0169 6.08504 18.8076 6.08504 19.7358V22.7268C6.08504 22.9331 6.22256 23.0706 6.42883 23.0706H16.3299C16.5018 23.0706 16.6737 22.9331 16.6737 22.7268V19.7358C16.6393 18.8076 15.8486 18.0169 14.9204 18.0169Z" fill="#9C7131"/>
<path d="M20.1116 3.74969H17.2582V3.06212C17.5332 3.06212 17.8082 2.95898 17.9801 2.75271C18.152 2.58081 18.2895 2.30578 18.2895 2.03075C18.2895 1.44631 17.8426 0.99939 17.2582 0.99939H5.43185C4.84741 0.99939 4.40048 1.44631 4.40048 2.03075C4.40048 2.58081 4.84741 3.06212 5.43185 3.06212V3.78407H2.57841C2.40651 3.78407 2.23462 3.95597 2.23462 4.12786C2.33776 8.39083 4.22859 11.5537 7.15079 12.4475C8.21653 13.5133 9.69482 14.2008 11.345 14.2008C11.4481 14.2008 11.5169 14.2008 11.62 14.2008C13.1327 14.1321 14.4735 13.4789 15.4705 12.4819C18.4614 11.6224 20.3522 8.42521 20.4554 4.12786C20.4554 3.92159 20.2835 3.74969 20.1116 3.74969ZM2.92219 4.43727H5.43185V8.28769C5.43185 9.38781 5.74126 10.4192 6.25694 11.313C4.33173 10.1441 3.09409 7.66887 2.92219 4.43727ZM16.3299 11.3474C17.7051 9.11278 17.0863 7.25633 17.2238 4.43727H19.7334C19.5959 7.70325 18.3239 10.2129 16.3299 11.3474Z" fill="#9C7131"/>
</svg>
