<svg width="27" height="27" viewBox="0 0 27 27" fill="none" xmlns="http://www.w3.org/2000/svg">
<path d="M21.0958 23.0819V4.51806C21.0958 4.31405 21.0147 4.1184 20.8705 3.97414C20.7262 3.82988 20.5306 3.74884 20.3265 3.74884H6.99343C6.78942 3.74884 6.59377 3.82988 6.44951 3.97414C6.30525 4.1184 6.22421 4.31405 6.22421 4.51806V23.0819C6.22421 23.2247 6.26399 23.3647 6.33909 23.4863C6.4142 23.6078 6.52165 23.706 6.64943 23.7699C6.7772 23.8337 6.92024 23.8608 7.06251 23.848C7.20479 23.8351 7.34068 23.7829 7.45496 23.6972L13.66 18.9281L19.865 23.6716C19.9776 23.7561 20.1111 23.8081 20.2512 23.822C20.3912 23.8359 20.5324 23.811 20.6594 23.7502C20.7863 23.6894 20.8941 23.5949 20.971 23.4771C21.048 23.3592 21.0911 23.2225 21.0958 23.0819ZM19.5573 21.5178L14.1215 17.3384C13.9861 17.2323 13.8191 17.1747 13.6472 17.1747C13.4752 17.1747 13.3082 17.2323 13.1728 17.3384L7.76265 21.5178V5.28728H19.5573V21.5178Z" fill="#474747"/>
</svg>
