<svg width="19" height="19" viewBox="0 0 19 19" fill="none" xmlns="http://www.w3.org/2000/svg">
<path d="M9.58 9.0316C9.0783 9.0316 8.59715 8.83229 8.24239 8.47754C7.88763 8.12278 7.68833 7.64163 7.68833 7.13993C7.68833 6.63823 7.88763 6.15707 8.24239 5.80232C8.59715 5.44756 9.0783 5.24826 9.58 5.24826C10.0817 5.24826 10.5629 5.44756 10.9176 5.80232C11.2724 6.15707 11.4717 6.63823 11.4717 7.13993C11.4717 7.38835 11.4227 7.63433 11.3277 7.86384C11.2326 8.09335 11.0933 8.30188 10.9176 8.47754C10.742 8.6532 10.5334 8.79254 10.3039 8.8876C10.0744 8.98267 9.82842 9.0316 9.58 9.0316ZM9.58 1.84326C8.17524 1.84326 6.82801 2.4013 5.83469 3.39462C4.84137 4.38794 4.28333 5.73517 4.28333 7.13993C4.28333 11.1124 9.58 16.9766 9.58 16.9766C9.58 16.9766 14.8767 11.1124 14.8767 7.13993C14.8767 5.73517 14.3186 4.38794 13.3253 3.39462C12.332 2.4013 10.9848 1.84326 9.58 1.84326Z" fill="#8A8A91"/>
</svg>
