<svg width="75" height="15" viewBox="0 0 75 15" fill="none" xmlns="http://www.w3.org/2000/svg">
<path d="M6.65506 1.42261L8.60923 5.38113L12.9773 6.01589L9.81645 9.09702L10.5629 13.4479L6.65506 11.3938L2.74804 13.4479L3.4942 9.09702L0.332809 6.01589L4.70155 5.38113L6.65506 1.42261Z" fill="#FACE14"/>
<g clip-path="url(#clip0_1_662)">
<path d="M21.9851 1.42261L23.9392 5.38113L28.3073 6.01589L25.1465 9.09702L25.8929 13.4479L21.9851 11.3938L18.078 13.4479L18.8242 9.09702L15.6628 6.01589L20.0316 5.38113L21.9851 1.42261Z" fill="#FACE14"/>
</g>
<g clip-path="url(#clip1_1_662)">
<path d="M37.3151 1.42261L39.2692 5.38113L43.6373 6.01589L40.4765 9.09702L41.2229 13.4479L37.3151 11.3938L33.408 13.4479L34.1542 9.09702L30.9928 6.01589L35.3616 5.38113L37.3151 1.42261Z" fill="#FACE14"/>
</g>
<path d="M52.6551 1.42261L54.6092 5.38113L58.9773 6.01589L55.8165 9.09702L56.5629 13.4479L52.6551 11.3938L48.748 13.4479L49.4942 9.09702L46.3328 6.01589L50.7016 5.38113L52.6551 1.42261Z" fill="#FACE14"/>
<g clip-path="url(#clip2_1_662)">
<path d="M67.9851 1.42261L69.9392 5.38113L74.3073 6.01589L71.1465 9.09702L71.8929 13.4479L67.9851 11.3938L64.078 13.4479L64.8242 9.09702L61.6628 6.01589L66.0316 5.38113L67.9851 1.42261Z" fill="#FACE14"/>
</g>
<defs>
<clipPath id="clip0_1_662">
<rect width="13.31" height="13.31" fill="white" transform="translate(15.33 0.780029)"/>
</clipPath>
<clipPath id="clip1_1_662">
<rect width="13.31" height="13.31" fill="white" transform="translate(30.66 0.780029)"/>
</clipPath>
<clipPath id="clip2_1_662">
<rect width="13.31" height="13.31" fill="white" transform="translate(61.33 0.780029)"/>
</clipPath>
</defs>
</svg>
