<svg width="76" height="15" viewBox="0 0 76 15" fill="none" xmlns="http://www.w3.org/2000/svg">
<g clip-path="url(#clip0_1_746)">
<path d="M7.15506 1.44263L9.10923 5.40115L13.4773 6.03591L10.3165 9.11704L11.0629 13.4679L7.15506 11.4138L3.24804 13.4679L3.9942 9.11704L0.832809 6.03591L5.20155 5.40115L7.15506 1.44263Z" fill="#FACE14"/>
</g>
<path d="M22.4851 1.44263L24.4392 5.40115L28.8073 6.03591L25.6465 9.11704L26.3929 13.4679L22.4851 11.4138L18.578 13.4679L19.3242 9.11704L16.1628 6.03591L20.5316 5.40115L22.4851 1.44263Z" fill="#FACE14"/>
<g clip-path="url(#clip1_1_746)">
<path d="M37.8151 1.44263L39.7692 5.40115L44.1373 6.03591L40.9765 9.11704L41.7229 13.4679L37.8151 11.4138L33.908 13.4679L34.6542 9.11704L31.4928 6.03591L35.8616 5.40115L37.8151 1.44263Z" fill="#FACE14"/>
</g>
<g clip-path="url(#clip2_1_746)">
<path d="M53.1551 1.44263L55.1092 5.40115L59.4773 6.03591L56.3165 9.11704L57.0629 13.4679L53.1551 11.4138L49.248 13.4679L49.9942 9.11704L46.8328 6.03591L51.2016 5.40115L53.1551 1.44263Z" fill="#FACE14"/>
</g>
<path d="M68.4851 1.44263L70.4392 5.40115L74.8073 6.03591L71.6465 9.11704L72.3929 13.4679L68.4851 11.4138L64.578 13.4679L65.3242 9.11704L62.1628 6.03591L66.5316 5.40115L68.4851 1.44263Z" fill="#FACE14"/>
<defs>
<clipPath id="clip0_1_746">
<rect width="13.31" height="13.31" fill="white" transform="translate(0.5 0.800049)"/>
</clipPath>
<clipPath id="clip1_1_746">
<rect width="13.31" height="13.31" fill="white" transform="translate(31.16 0.800049)"/>
</clipPath>
<clipPath id="clip2_1_746">
<rect width="13.31" height="13.31" fill="white" transform="translate(46.5 0.800049)"/>
</clipPath>
</defs>
</svg>
