<svg width="28" height="28" viewBox="0 0 28 28" fill="none" xmlns="http://www.w3.org/2000/svg">
<g clip-path="url(#clip0_1_1053)">
<path d="M9.40794 20.8289L8.95656 21.2498L11.4821 23.9581L24.1208 12.1724L21.5953 9.46407L21.1439 9.88499C20.7847 10.2199 20.3073 10.3984 19.8165 10.3813C19.3257 10.3641 18.8619 10.1527 18.527 9.7936C18.1921 9.43446 18.0135 8.95699 18.0307 8.46622C18.0478 7.97546 18.2592 7.5116 18.6184 7.17669L19.0697 6.75577L16.5442 4.04748L3.90551 15.8333L6.43103 18.5416L6.88242 18.1206C7.24156 17.7857 7.71903 17.6072 8.2098 17.6243C8.70056 17.6415 9.16442 17.8529 9.49933 18.212C9.83423 18.5712 10.0128 19.0486 9.99561 19.5394C9.97847 20.0302 9.76708 20.494 9.40794 20.8289ZM12.8722 9.15945L13.775 8.31761L14.6168 9.22037L13.7141 10.0622L12.8722 9.15945ZM14.5559 10.965L15.4587 10.1231L16.3005 11.0259L15.3978 11.8677L14.5559 10.965ZM16.2396 12.7705L17.1424 11.9287L17.9842 12.8314L17.0814 13.6733L16.2396 12.7705ZM17.9233 14.576L18.826 13.7342L19.6679 14.637L18.7651 15.4788L17.9233 14.576Z" fill="#FF446A"/>
</g>
<defs>
<clipPath id="clip0_1_1053">
<rect width="19.75" height="19.75" fill="white" transform="translate(27.97 14.4902) rotate(137)"/>
</clipPath>
</defs>
</svg>
