<svg width="18" height="19" viewBox="0 0 18 19" fill="none" xmlns="http://www.w3.org/2000/svg">
<path d="M10.4684 2.85034C9.09672 2.85034 7.9805 3.96401 7.9805 5.33566C7.9805 6.70731 9.09672 7.82353 10.4684 7.82353C11.84 7.82353 12.9537 6.70731 12.9537 5.33566C12.9537 3.96401 11.84 2.85034 10.4684 2.85034ZM11.6682 6.17523C11.7679 6.27501 11.7679 6.43665 11.6682 6.53642C11.5684 6.6362 11.4067 6.6362 11.307 6.53642L10.468 5.69743L9.62897 6.53642C9.52919 6.6362 9.36755 6.6362 9.26778 6.53642C9.168 6.43665 9.168 6.27501 9.26778 6.17523L10.1068 5.33623L9.26778 4.49724C9.168 4.39746 9.168 4.23582 9.26778 4.13604C9.36755 4.03627 9.52919 4.03627 9.62897 4.13604L10.468 4.97504L11.307 4.13604C11.4067 4.03627 11.5684 4.03627 11.6682 4.13604C11.7679 4.23582 11.7679 4.39746 11.6682 4.49724L10.8292 5.33623L11.6682 6.17523Z" fill="#FFCE71"/>
<path d="M6.14906 12.1913L5.10948 13.8618H15.8426C16.1059 13.8618 17.0048 14.3137 17.0048 15.2641C17.0048 16.0355 16.3764 16.6639 15.6025 16.6639C14.8311 16.6639 14.2002 16.0355 14.2002 15.2641C14.2002 14.927 14.3202 14.6154 14.522 14.3727H6.09288C6.83213 15.2616 6.21184 16.6639 5.01242 16.6639C3.51447 16.6639 3.06304 14.6116 4.43003 13.9896C4.43003 13.9638 4.51761 13.8463 5.72763 11.9027C5.72763 11.9002 5.72507 11.8976 5.72507 11.8925C5.70455 11.8344 5.70733 11.8431 5.70462 11.8363L5.70973 11.844C5.35715 10.9052 6.71269 14.8568 2.76976 3.04699H1.13246C0.989418 3.04699 0.877029 2.93206 0.877029 2.79156C0.877029 2.65108 0.989418 2.53613 1.13246 2.53613H2.94345C3.04817 2.53613 3.14014 2.59999 3.181 2.69705L4.14143 5.08021H7.48242C7.4722 5.1645 7.46964 5.24878 7.46964 5.33564C7.46964 6.98825 8.81575 8.33436 10.4684 8.33436C12.121 8.33436 13.4646 6.98825 13.4646 5.33564C13.4646 5.24878 13.462 5.1645 13.4518 5.08021H16.9665C16.9869 5.08021 17.0099 5.08276 17.0278 5.08786H17.0303C17.0968 5.10574 17.1555 5.14918 17.1912 5.21048C17.2245 5.27178 17.2321 5.34329 17.2117 5.41226L15.1759 12.0125C15.1427 12.1198 15.0431 12.1913 14.9307 12.1913L6.14906 12.1913Z" fill="#FFCE71"/>
</svg>
